# xmcd CD database file
#
# Track frame offsets:
#	150
#	19383
#	38079
#	55867
#	71787
#	89914
#	108866
#	119263
#	129652
#	147908
#	166176
#	179217
#	188623
#	198030
#	212589
#	227156
#	237396
#	247630
#	250600
#	253570
#	266348
#	277645
#
# Disc length: 3827 seconds
#
# Revision: 0
# Processed by: cddbd v1.5.1PL0 Copyright (c) Steve Scherf et al.
# Submitted via: CDex 1.51
#
DISCID=320ef116
DTITLE=Sonoton Authentic Series - SAS 209 - Russia Today
DYEAR=1999
DGENRE=Contentum
TTITLE0=Vocal Pop - The summer
TTITLE1=Vocal Pop - The butterfly behind the window
TTITLE2=Vocal Pop - Don't be jealous
TTITLE3=Vocal Pop - Albatross
TTITLE4=Vocal Pop - Romance
TTITLE5=Vocal Pop - Show star
TTITLE6=Folk Fusion - Golden mountains 1
TTITLE7=Folk Fusion - Golden mountains 2
TTITLE8=Folk Fusion - Volga boatsmen 1
TTITLE9=Folk Fusion - Volga boatsmen 2
TTITLE10=Folk Fusion - Volga boatsmen 3
TTITLE11=Folk Fusion - Karobotschka 1
TTITLE12=Folk Fusion - Karobotschka 2
TTITLE13=Folk Fusion - Little Birshtree 1
TTITLE14=Folk Fusion - Little Birshtree 2
TTITLE15=Folk Fusion - Stenka Razin 1
TTITLE16=Folk Fusion - Stenka Razin 2
TTITLE17=Folk Fusion - Stenka Razin 3
TTITLE18=Folk Fusion - Stenka Razin 4
TTITLE19=Folk Fusion - Kalinka
TTITLE20=Folk Fusion - Black Eyes 1
TTITLE21=Folk Fusion - Black Eyes 2
EXTD=YEAR: 1999
EXTT0=
EXTT1=
EXTT2=
EXTT3=
EXTT4=
EXTT5=
EXTT6=
EXTT7=
EXTT8=
EXTT9=
EXTT10=
EXTT11=
EXTT12=
EXTT13=
EXTT14=
EXTT15=
EXTT16=
EXTT17=
EXTT18=
EXTT19=
EXTT20=
EXTT21=
PLAYORDER=
